<svg width="103" height="71" viewBox="0 0 103 71" fill="none" xmlns="http://www.w3.org/2000/svg">
<path d="M79.7089 42.1269V40.4749C74.2022 39.9243 69.3839 37.7216 65.2539 33.8669C61.1239 30.2876 59.0589 25.7446 59.0589 20.2379C59.0589 15.0066 60.9862 10.3259 64.8409 6.19592C68.6956 2.06592 73.9269 0.000915527 80.5349 0.000915527C86.8676 0.000915527 92.2366 2.89191 96.6419 8.67392C100.772 14.4559 102.837 21.6146 102.837 30.1499C102.837 38.6853 99.1199 47.4959 91.6859 56.5819C83.9766 65.6679 76.2672 70.2109 68.5579 70.2109C66.0799 70.2109 64.8409 69.7979 64.8409 68.9719C64.8409 68.1459 65.3916 67.7329 66.4929 67.7329C67.5942 67.7329 69.6592 65.6679 72.6879 61.5379C77.3686 55.4806 79.7089 49.0103 79.7089 42.1269ZM20.6499 42.1269V40.4749C15.1432 39.9243 10.3249 37.7216 6.19491 33.8669C2.06491 30.2876 -8.39233e-05 25.7446 -8.39233e-05 20.2379C-8.39233e-05 15.0066 1.92725 10.3259 5.78191 6.19592C9.36124 2.06592 14.4549 0.000915527 21.0629 0.000915527C27.3956 0.000915527 32.7646 2.89191 37.1699 8.67392C41.5752 14.4559 43.7779 21.6146 43.7779 30.1499C43.7779 38.6853 39.9232 47.4959 32.2139 56.5819C24.5046 65.6679 16.7952 70.2109 9.08591 70.2109C6.88325 70.2109 5.78191 69.7979 5.78191 68.9719C5.78191 68.1459 6.05724 67.7329 6.60791 67.7329C8.25991 67.7329 10.6002 65.6679 13.6289 61.5379C18.3096 55.2053 20.6499 48.7349 20.6499 42.1269Z" fill="white"/>
</svg>
