<svg width="103" height="71" viewBox="0 0 103 71" fill="none" xmlns="http://www.w3.org/2000/svg">
<path d="M79.7089 42.126V40.4739C74.2022 39.9233 69.3839 37.7206 65.2539 33.8659C61.1239 30.2866 59.0589 25.7436 59.0589 20.2369C59.0589 15.0056 60.9862 10.3249 64.8409 6.19495C68.6956 2.06494 73.9269 -6.10352e-05 80.5349 -6.10352e-05C86.8676 -6.10352e-05 92.2366 2.89094 96.6419 8.67294C100.772 14.4549 102.837 21.6136 102.837 30.149C102.837 38.6843 99.1199 47.4949 91.6859 56.5809C83.9766 65.667 76.2672 70.21 68.5579 70.21C66.0799 70.21 64.8409 69.797 64.8409 68.971C64.8409 68.1449 65.3916 67.7319 66.4929 67.7319C67.5942 67.7319 69.6592 65.6669 72.6879 61.537C77.3686 55.4796 79.7089 49.0093 79.7089 42.126ZM20.6499 42.126V40.4739C15.1432 39.9233 10.3249 37.7206 6.19491 33.8659C2.06491 30.2866 -8.39233e-05 25.7436 -8.39233e-05 20.2369C-8.39233e-05 15.0056 1.92725 10.3249 5.78191 6.19495C9.36124 2.06494 14.4549 -6.10352e-05 21.0629 -6.10352e-05C27.3956 -6.10352e-05 32.7646 2.89094 37.1699 8.67294C41.5752 14.4549 43.7779 21.6136 43.7779 30.149C43.7779 38.6843 39.9232 47.4949 32.2139 56.5809C24.5046 65.667 16.7952 70.21 9.08591 70.21C6.88325 70.21 5.78191 69.797 5.78191 68.971C5.78191 68.1449 6.05724 67.7319 6.60791 67.7319C8.25991 67.7319 10.6002 65.6669 13.6289 61.537C18.3096 55.2043 20.6499 48.734 20.6499 42.126Z" fill="#FDDCB0"/>
</svg>
