<svg width="37" height="37" viewBox="0 0 37 37" fill="none" xmlns="http://www.w3.org/2000/svg">
<path d="M33.6466 13.1479H32.3359C31.9774 13.1479 31.9654 12.9149 31.953 12.7989C31.2657 6.37005 25.7711 1.34473 19.1164 1.34473H17.8827C11.2773 1.34473 5.8148 6.29582 5.06212 12.6564C5.0429 12.8194 5.03284 13.1479 4.73096 13.1479H3.35249C2.44777 13.1479 0.335938 14.0931 0.335938 18.8663V21.3713C0.335938 24.9114 2.44777 25.7279 3.35249 25.7279H7.73816C8.64289 25.7279 9.38309 24.993 9.38309 24.0948V14.781C9.38309 13.8828 8.64289 13.1479 7.73816 13.1479C7.73816 13.1479 7.53168 13.1299 7.58431 12.7648C8.308 7.73789 12.6286 3.84235 17.8827 3.84235H19.1164C24.3349 3.84235 28.667 7.68035 29.4004 12.6624C29.424 12.823 29.5121 13.1479 29.261 13.1479C28.3563 13.1479 27.6161 13.8828 27.6161 14.781V24.0948C27.6161 24.993 28.3563 25.7279 29.261 25.7279H30.0845C30.3109 25.7279 30.2725 25.9075 30.2522 25.998C29.5814 29.0054 28.075 32.4172 24.6939 32.4172H22.1894C21.9338 32.4172 21.8707 32.2313 21.8221 32.1432C21.4164 31.4072 20.6296 30.908 19.725 30.908H17.4173C16.0973 30.908 15.0272 31.9704 15.0272 33.281C15.0272 34.5916 16.0973 35.6538 17.4173 35.6538H19.725C20.6419 35.6538 21.4379 35.1411 21.8386 34.3889C21.8737 34.3231 21.9023 34.1865 22.1728 34.1865H24.6939C26.9905 34.1865 30.0638 33.0535 31.6631 27.6556C31.8336 27.0804 31.9718 26.5072 32.0844 25.9547C32.0999 25.8787 32.1096 25.728 32.3486 25.728H33.6467C34.5514 25.728 36.6632 24.9114 36.6632 21.3714V18.8664C36.6631 14.1611 34.5513 13.1479 33.6466 13.1479Z" fill="white"/>
</svg>
